<mxfile host="app.diagrams.net" modified="2023-03-01T08:40:16.966Z" agent="5.0 (X11; Linux x86_64) AppleWebKit/537.36 (KHTML, like Gecko) Chrome/110.0.0.0 Safari/537.36" etag="SmLc4N_nOFMTG2e-jasT" version="20.8.23" type="github">
  <diagram name="第 1 页" id="f60LronIqc0JHcP7PERL">
    <mxGraphModel dx="998" dy="530" grid="1" gridSize="10" guides="1" tooltips="1" connect="1" arrows="1" fold="1" page="1" pageScale="1" pageWidth="827" pageHeight="1169" math="0" shadow="0">
      <root>
        <mxCell id="0" />
        <mxCell id="1" parent="0" />
        <mxCell id="CtJdPsDYsdZSeA5UdTZm-7" style="edgeStyle=orthogonalEdgeStyle;rounded=0;orthogonalLoop=1;jettySize=auto;html=1;entryX=0;entryY=0.5;entryDx=0;entryDy=0;" edge="1" parent="1" source="CtJdPsDYsdZSeA5UdTZm-1" target="CtJdPsDYsdZSeA5UdTZm-2">
          <mxGeometry relative="1" as="geometry" />
        </mxCell>
        <mxCell id="CtJdPsDYsdZSeA5UdTZm-1" value="ConvBNSiLU" style="rounded=1;whiteSpace=wrap;html=1;fillColor=#dae8fc;strokeColor=#6c8ebf;" vertex="1" parent="1">
          <mxGeometry x="110" y="760" width="120" height="60" as="geometry" />
        </mxCell>
        <mxCell id="CtJdPsDYsdZSeA5UdTZm-8" style="edgeStyle=orthogonalEdgeStyle;rounded=0;orthogonalLoop=1;jettySize=auto;html=1;entryX=0;entryY=0.5;entryDx=0;entryDy=0;" edge="1" parent="1" source="CtJdPsDYsdZSeA5UdTZm-2" target="CtJdPsDYsdZSeA5UdTZm-5">
          <mxGeometry relative="1" as="geometry" />
        </mxCell>
        <mxCell id="CtJdPsDYsdZSeA5UdTZm-2" value="BottleNeck" style="rounded=1;whiteSpace=wrap;html=1;fillColor=#ffe6cc;strokeColor=#d79b00;" vertex="1" parent="1">
          <mxGeometry x="290" y="760" width="120" height="60" as="geometry" />
        </mxCell>
        <mxCell id="CtJdPsDYsdZSeA5UdTZm-15" style="edgeStyle=orthogonalEdgeStyle;rounded=0;orthogonalLoop=1;jettySize=auto;html=1;" edge="1" parent="1" source="CtJdPsDYsdZSeA5UdTZm-3" target="CtJdPsDYsdZSeA5UdTZm-5">
          <mxGeometry relative="1" as="geometry" />
        </mxCell>
        <mxCell id="CtJdPsDYsdZSeA5UdTZm-3" value="ConvBNSiLU" style="rounded=1;whiteSpace=wrap;html=1;fillColor=#dae8fc;strokeColor=#6c8ebf;" vertex="1" parent="1">
          <mxGeometry x="200" y="870" width="120" height="60" as="geometry" />
        </mxCell>
        <mxCell id="CtJdPsDYsdZSeA5UdTZm-9" style="edgeStyle=orthogonalEdgeStyle;rounded=0;orthogonalLoop=1;jettySize=auto;html=1;exitX=1;exitY=0.5;exitDx=0;exitDy=0;entryX=0;entryY=0.5;entryDx=0;entryDy=0;" edge="1" parent="1" source="CtJdPsDYsdZSeA5UdTZm-5" target="CtJdPsDYsdZSeA5UdTZm-6">
          <mxGeometry relative="1" as="geometry" />
        </mxCell>
        <mxCell id="CtJdPsDYsdZSeA5UdTZm-5" value="concat" style="ellipse;whiteSpace=wrap;html=1;fillColor=#d5e8d4;strokeColor=#82b366;" vertex="1" parent="1">
          <mxGeometry x="470" y="760" width="60" height="60" as="geometry" />
        </mxCell>
        <mxCell id="CtJdPsDYsdZSeA5UdTZm-10" style="edgeStyle=orthogonalEdgeStyle;rounded=0;orthogonalLoop=1;jettySize=auto;html=1;exitX=1;exitY=0.5;exitDx=0;exitDy=0;" edge="1" parent="1" source="CtJdPsDYsdZSeA5UdTZm-6">
          <mxGeometry relative="1" as="geometry">
            <mxPoint x="800" y="790" as="targetPoint" />
          </mxGeometry>
        </mxCell>
        <mxCell id="CtJdPsDYsdZSeA5UdTZm-6" value="ConvBNSiLU" style="rounded=1;whiteSpace=wrap;html=1;fillColor=#dae8fc;strokeColor=#6c8ebf;" vertex="1" parent="1">
          <mxGeometry x="590" y="760" width="120" height="60" as="geometry" />
        </mxCell>
        <mxCell id="CtJdPsDYsdZSeA5UdTZm-11" value="" style="endArrow=classic;html=1;rounded=0;entryX=0;entryY=0.5;entryDx=0;entryDy=0;" edge="1" parent="1" target="CtJdPsDYsdZSeA5UdTZm-1">
          <mxGeometry width="50" height="50" relative="1" as="geometry">
            <mxPoint x="10" y="790" as="sourcePoint" />
            <mxPoint x="450" y="730" as="targetPoint" />
          </mxGeometry>
        </mxCell>
        <mxCell id="CtJdPsDYsdZSeA5UdTZm-14" value="" style="endArrow=classic;html=1;rounded=0;entryX=0;entryY=0.5;entryDx=0;entryDy=0;" edge="1" parent="1" target="CtJdPsDYsdZSeA5UdTZm-3">
          <mxGeometry width="50" height="50" relative="1" as="geometry">
            <mxPoint x="60" y="790" as="sourcePoint" />
            <mxPoint x="60" y="900" as="targetPoint" />
            <Array as="points">
              <mxPoint x="60" y="900" />
            </Array>
          </mxGeometry>
        </mxCell>
      </root>
    </mxGraphModel>
  </diagram>
</mxfile>
